<svg xmlns="http://www.w3.org/2000/svg" xmlns:xlink="http://www.w3.org/1999/xlink" width="500"
    zoomAndPan="magnify" viewBox="0 0 375 374.999991" height="500"
    preserveAspectRatio="xMidYMid meet" version="1.2">
    <defs>
        <clipPath id="295e07581e">
            <path
                d="M 113.75 85.648438 L 308.75 85.648438 L 308.75 298 L 113.75 298 Z M 113.75 85.648438 " />
        </clipPath>
    </defs>
    <g id="fdc19209f5">
        <g clip-rule="nonzero" clip-path="url(#295e07581e)">
            <path style=" stroke:none;fill-rule:nonzero;fill:#000000;fill-opacity:1;"
                d="M 280.199219 114.308594 C 261.78125 95.886719 237.296875 85.742188 211.253906 85.742188 C 185.210938 85.742188 160.722656 95.886719 142.308594 114.308594 C 123.894531 132.726562 113.75 157.21875 113.75 183.273438 C 113.75 183.574219 113.816406 184.699219 113.84375 185.003906 C 115.148438 197.625 119.597656 209.992188 127.144531 220.242188 C 134.859375 230.722656 143.980469 237.570312 154.121094 242.203125 C 150.660156 248.753906 147.242188 255.328125 143.890625 261.933594 C 140.582031 268.445312 137.308594 274.984375 134.191406 281.59375 C 132.378906 285.398438 130.632812 289.234375 128.976562 293.105469 C 127.289062 297.066406 133.058594 299.304688 134.71875 295.46875 C 136.292969 291.824219 137.921875 288.203125 139.597656 284.601562 C 145.949219 271.035156 153.144531 257.816406 160.753906 244.878906 C 165.5 246.566406 170.433594 247.871094 175.523438 248.914062 C 198.863281 253.699219 223.773438 250.414062 245.808594 241.710938 C 256.308594 237.566406 267.390625 232.273438 274.367188 223.050781 C 281.253906 213.945312 283.53125 200.203125 275.71875 190.875 C 272.027344 186.464844 267.019531 183.523438 261.789062 181.285156 C 256.285156 178.925781 250.390625 177.324219 244.433594 176.699219 C 236.207031 175.835938 227.890625 176.859375 220.097656 179.5 C 232.742188 165.890625 244.417969 151.417969 255.191406 136.246094 C 259.117188 130.714844 264.386719 124.769531 264.15625 117.578125 C 264.085938 115.320312 261.835938 114.464844 259.96875 115.058594 C 252.695312 117.355469 246.496094 122.714844 240.863281 127.710938 C 236.085938 131.945312 231.5625 136.46875 227.210938 141.128906 C 217.203125 151.851562 208.039062 163.347656 199.300781 175.117188 C 197.902344 176.992188 196.523438 178.886719 195.144531 180.777344 C 197.976562 175.871094 200.824219 170.972656 203.699219 166.089844 C 209.496094 156.25 215.261719 146.628906 221.242188 137.328125 C 222.011719 136.136719 222.378906 134.671875 221.507812 133.402344 C 220.75 132.300781 219.0625 131.773438 217.835938 132.402344 C 206.785156 138.097656 196.859375 146.007812 187.953125 154.625 C 185.910156 156.605469 183.917969 158.644531 182.027344 160.769531 C 180.320312 162.683594 178.199219 164.792969 177.039062 167.105469 C 175.726562 169.71875 176.902344 172.839844 179.976562 173.191406 C 182.324219 173.464844 184.917969 172.40625 186.957031 171.351562 C 188.492188 170.554688 189.566406 168.867188 188.96875 167.105469 C 188.601562 166.027344 187.535156 165.238281 186.40625 165.117188 C 187.367188 164.023438 188.351562 162.953125 189.359375 161.90625 C 192.3125 158.824219 195.445312 155.921875 198.691406 153.152344 C 202.074219 150.265625 205.585938 147.460938 209.246094 144.875 C 199.65625 160.394531 190.574219 176.238281 181.597656 192.105469 C 173.273438 206.820312 165.082031 221.617188 157.125 236.535156 C 148.742188 232.769531 141.070312 227.304688 134.78125 219.203125 C 130.730469 213.984375 127.1875 208.523438 124.777344 202.527344 C 123.710938 199.867188 122.808594 197.140625 122.074219 194.363281 C 121.34375 191.609375 121.019531 190.027344 120.632812 187.449219 C 120.464844 186.328125 120.234375 183.480469 120.234375 183.273438 C 120.234375 133.070312 161.066406 92.230469 211.253906 92.230469 C 261.441406 92.230469 302.273438 133.070312 302.273438 183.273438 C 302.273438 233.476562 261.441406 274.3125 211.253906 274.3125 C 209.464844 274.3125 208.011719 275.765625 208.011719 277.558594 C 208.011719 279.347656 209.464844 280.800781 211.253906 280.800781 C 237.300781 280.800781 261.78125 270.65625 280.199219 252.234375 C 298.613281 233.8125 308.757812 209.320312 308.757812 183.269531 C 308.757812 157.21875 298.613281 132.726562 280.199219 114.308594 Z M 173.640625 223.742188 C 189.890625 197.859375 207.449219 172.425781 227.828125 149.59375 C 232.46875 144.390625 237.335938 139.269531 242.328125 134.679688 C 246.585938 130.765625 251.210938 126.449219 256.394531 123.515625 C 255.992188 124.261719 255.539062 124.972656 255.074219 125.660156 C 253.429688 128.113281 251.714844 130.523438 250 132.929688 C 246.476562 137.875 242.867188 142.753906 239.152344 147.558594 C 231.96875 156.859375 224.386719 165.855469 216.40625 174.480469 C 211.707031 179.5625 206.867188 184.515625 201.914062 189.351562 C 199.226562 191.976562 203.097656 196 206.066406 193.855469 C 214.945312 187.445312 225.238281 183.359375 236.242188 182.890625 C 246.449219 182.457031 257.976562 185.3125 266.363281 191.285156 C 270.480469 194.21875 273.550781 198.222656 274.148438 203.363281 C 274.71875 208.265625 273.4375 213.296875 270.789062 217.449219 C 265.117188 226.320312 254.976562 231.148438 245.570312 235.023438 C 225.371094 243.351562 202.75 246.730469 181.097656 243.273438 C 175.328125 242.355469 169.609375 241.085938 164.101562 239.253906 C 167.238281 234.035156 170.421875 228.867188 173.640625 223.742188 Z M 173.640625 223.742188 " />
        </g>
        <path style=" stroke:none;fill-rule:nonzero;fill:#000000;fill-opacity:1;"
            d="M 196.070312 273.976562 C 193.949219 273.976562 192.230469 275.699219 192.230469 277.820312 C 192.230469 279.941406 193.949219 281.664062 196.070312 281.664062 C 198.191406 281.664062 199.914062 279.941406 199.914062 277.820312 C 199.914062 275.699219 198.191406 273.976562 196.070312 273.976562 Z M 196.070312 273.976562 " />
        <g style="fill:#000000;fill-opacity:1;">
            <g transform="translate(166.01876, 272.624982)">
                <path style="stroke:none"
                    d="M 84.828125 -90.96875 C 85.640625 -91.789062 86.390625 -91.992188 87.078125 -91.578125 C 87.765625 -91.171875 87.765625 -90.488281 87.078125 -89.53125 C 82.023438 -83.25 76.253906 -76.757812 69.765625 -70.0625 C 63.273438 -63.375 56.613281 -57.84375 49.78125 -53.46875 C 43.226562 -49.101562 37.117188 -46.472656 31.453125 -45.578125 C 25.785156 -44.691406 21.550781 -45.71875 18.75 -48.65625 C 15.945312 -51.59375 15.503906 -56.613281 17.421875 -63.71875 C 18.503906 -67.675781 19.898438 -71.601562 21.609375 -75.5 C 23.316406 -79.394531 24.648438 -82.640625 25.609375 -85.234375 C 26.296875 -87.148438 26.398438 -88.378906 25.921875 -88.921875 C 25.441406 -89.460938 24.3125 -88.367188 22.53125 -85.640625 C 21.164062 -83.453125 19.359375 -80.378906 17.109375 -76.421875 C 14.859375 -72.460938 12.773438 -68.84375 10.859375 -65.5625 C 5.671875 -56.957031 0.789062 -51.148438 -3.78125 -48.140625 C -8.363281 -45.140625 -11.953125 -44.425781 -14.546875 -46 C -17.140625 -47.570312 -18.164062 -50.816406 -17.625 -55.734375 C -17.070312 -59.140625 -15.941406 -63.03125 -14.234375 -67.40625 C -12.523438 -71.78125 -10.40625 -76.117188 -7.875 -80.421875 C -5.351562 -84.722656 -2.625 -88.34375 0.3125 -91.28125 C 3.25 -94.21875 6.148438 -95.921875 9.015625 -96.390625 C 11.878906 -96.867188 14.472656 -95.539062 16.796875 -92.40625 C 17.484375 -91.582031 17.453125 -90.625 16.703125 -89.53125 C 15.953125 -88.4375 14.960938 -87.648438 13.734375 -87.171875 C 12.503906 -86.703125 11.546875 -86.875 10.859375 -87.6875 C 9.359375 -89.601562 7.6875 -90.21875 5.84375 -89.53125 C 4 -88.851562 2.117188 -87.285156 0.203125 -84.828125 C -1.703125 -82.367188 -3.472656 -79.460938 -5.109375 -76.109375 C -6.753906 -72.765625 -8.085938 -69.382812 -9.109375 -65.96875 C -10.140625 -62.550781 -10.789062 -59.613281 -11.0625 -57.15625 C -11.332031 -53.0625 -10.613281 -51.113281 -8.90625 -51.3125 C -7.195312 -51.519531 -4.941406 -53.09375 -2.140625 -56.03125 C 0.648438 -58.96875 3.476562 -62.554688 6.34375 -66.796875 C 8.8125 -70.617188 11.035156 -74.164062 13.015625 -77.4375 C 14.992188 -80.71875 17.078125 -83.863281 19.265625 -86.875 C 22.816406 -91.238281 25.679688 -93.25 27.859375 -92.90625 C 30.046875 -92.570312 30.59375 -90.148438 29.5 -85.640625 C 28.6875 -82.359375 27.59375 -78.941406 26.21875 -75.390625 C 24.851562 -71.847656 23.765625 -68.234375 22.953125 -64.546875 C 21.859375 -59.078125 22.398438 -55.351562 24.578125 -53.375 C 26.765625 -51.394531 29.972656 -50.878906 34.203125 -51.828125 C 38.441406 -52.785156 42.953125 -54.769531 47.734375 -57.78125 C 55.390625 -62.5625 62.390625 -68.125 68.734375 -74.46875 C 75.085938 -80.820312 80.453125 -86.320312 84.828125 -90.96875 Z M 84.828125 -90.96875 " />
            </g>
        </g>
    </g>
</svg>
