<svg xmlns="http://www.w3.org/2000/svg" xmlns:xlink="http://www.w3.org/1999/xlink" width="500" zoomAndPan="magnify" viewBox="0 0 375 374.999991" height="500" preserveAspectRatio="xMidYMid meet" version="1.2"><defs><clipPath id="3900bf8a90"><path d="M 113.75 85.648438 L 308.75 85.648438 L 308.75 298 L 113.75 298 Z M 113.75 85.648438 "/></clipPath></defs><g id="e39bcfc81f"><g clip-rule="nonzero" clip-path="url(#3900bf8a90)"><path style=" stroke:none;fill-rule:nonzero;fill:#ffffff;fill-opacity:1;" d="M 280.199219 114.300781 C 261.78125 95.886719 237.296875 85.742188 211.253906 85.742188 C 185.210938 85.742188 160.722656 95.886719 142.308594 114.300781 C 123.894531 132.714844 113.75 157.199219 113.75 183.246094 C 113.75 183.546875 113.816406 184.671875 113.84375 184.976562 C 115.148438 197.59375 119.597656 209.960938 127.144531 220.203125 C 134.859375 230.683594 143.980469 237.527344 154.121094 242.15625 C 150.660156 248.707031 147.242188 255.28125 143.890625 261.882812 C 140.582031 268.394531 137.308594 274.933594 134.191406 281.539062 C 132.378906 285.34375 130.632812 289.175781 128.976562 293.046875 C 127.289062 297.007812 133.058594 299.246094 134.71875 295.410156 C 136.292969 291.765625 137.921875 288.144531 139.597656 284.546875 C 145.949219 270.984375 153.144531 257.765625 160.753906 244.835938 C 165.5 246.523438 170.433594 247.828125 175.523438 248.867188 C 198.863281 253.652344 223.773438 250.367188 245.808594 241.664062 C 256.308594 237.523438 267.390625 232.230469 274.367188 223.011719 C 281.253906 213.910156 283.53125 200.171875 275.71875 190.84375 C 272.027344 186.4375 267.019531 183.496094 261.789062 181.257812 C 256.285156 178.902344 250.390625 177.300781 244.433594 176.671875 C 236.207031 175.8125 227.890625 176.832031 220.097656 179.472656 C 232.742188 165.867188 244.417969 151.398438 255.191406 136.230469 C 259.117188 130.699219 264.386719 124.757812 264.15625 117.570312 C 264.085938 115.3125 261.835938 114.457031 259.96875 115.050781 C 252.695312 117.34375 246.496094 122.703125 240.863281 127.699219 C 236.085938 131.933594 231.5625 136.453125 227.210938 141.113281 C 217.203125 151.832031 208.039062 163.328125 199.300781 175.089844 C 197.902344 176.96875 196.523438 178.859375 195.144531 180.75 C 197.976562 175.84375 200.824219 170.949219 203.699219 166.070312 C 209.496094 156.230469 215.261719 146.609375 221.242188 137.316406 C 222.011719 136.121094 222.378906 134.660156 221.507812 133.390625 C 220.75 132.289062 219.0625 131.761719 217.835938 132.390625 C 206.785156 138.082031 196.859375 145.988281 187.953125 154.605469 C 185.910156 156.585938 183.917969 158.621094 182.027344 160.746094 C 180.320312 162.664062 178.199219 164.773438 177.039062 167.082031 C 175.726562 169.695312 176.902344 172.816406 179.976562 173.167969 C 182.324219 173.4375 184.917969 172.382812 186.957031 171.328125 C 188.492188 170.53125 189.566406 168.847656 188.96875 167.082031 C 188.601562 166.003906 187.535156 165.214844 186.40625 165.097656 C 187.367188 164 188.351562 162.933594 189.359375 161.882812 C 192.3125 158.800781 195.445312 155.902344 198.691406 153.132812 C 202.074219 150.246094 205.585938 147.441406 209.246094 144.859375 C 199.65625 160.375 190.574219 176.210938 181.597656 192.078125 C 173.273438 206.785156 165.082031 221.578125 157.125 236.492188 C 148.742188 232.726562 141.070312 227.265625 134.78125 219.167969 C 130.730469 213.949219 127.1875 208.492188 124.777344 202.492188 C 123.710938 199.835938 122.808594 197.109375 122.074219 194.335938 C 121.34375 191.582031 121.019531 189.996094 120.632812 187.417969 C 120.464844 186.300781 120.234375 183.453125 120.234375 183.246094 C 120.234375 133.058594 161.066406 92.226562 211.253906 92.226562 C 261.441406 92.226562 302.273438 133.058594 302.273438 183.246094 C 302.273438 233.433594 261.441406 274.261719 211.253906 274.261719 C 209.464844 274.261719 208.011719 275.714844 208.011719 277.503906 C 208.011719 279.292969 209.464844 280.746094 211.253906 280.746094 C 237.300781 280.746094 261.78125 270.601562 280.199219 252.1875 C 298.613281 233.769531 308.757812 209.285156 308.757812 183.242188 C 308.757812 157.199219 298.613281 132.714844 280.199219 114.300781 Z M 173.640625 223.703125 C 189.890625 197.828125 207.449219 172.402344 227.828125 149.574219 C 232.46875 144.375 237.335938 139.257812 242.328125 134.667969 C 246.585938 130.753906 251.210938 126.441406 256.394531 123.507812 C 255.992188 124.25 255.539062 124.964844 255.074219 125.648438 C 253.429688 128.101562 251.714844 130.507812 250 132.917969 C 246.476562 137.859375 242.867188 142.738281 239.152344 147.542969 C 231.96875 156.835938 224.386719 165.832031 216.40625 174.457031 C 211.707031 179.539062 206.867188 184.488281 201.914062 189.324219 C 199.226562 191.945312 203.097656 195.96875 206.066406 193.824219 C 214.945312 187.414062 225.238281 183.332031 236.242188 182.863281 C 246.449219 182.429688 257.976562 185.28125 266.363281 191.257812 C 270.480469 194.191406 273.550781 198.191406 274.148438 203.328125 C 274.71875 208.230469 273.4375 213.261719 270.789062 217.414062 C 265.117188 226.28125 254.976562 231.105469 245.570312 234.984375 C 225.371094 243.304688 202.75 246.6875 181.097656 243.230469 C 175.328125 242.308594 169.609375 241.042969 164.101562 239.210938 C 167.238281 233.996094 170.421875 228.824219 173.640625 223.703125 Z M 173.640625 223.703125 "/></g><path style=" stroke:none;fill-rule:nonzero;fill:#ffffff;fill-opacity:1;" d="M 196.070312 273.925781 C 193.949219 273.925781 192.230469 275.644531 192.230469 277.765625 C 192.230469 279.886719 193.949219 281.609375 196.070312 281.609375 C 198.191406 281.609375 199.914062 279.886719 199.914062 277.765625 C 199.914062 275.644531 198.191406 273.925781 196.070312 273.925781 Z M 196.070312 273.925781 "/><g style="fill:#ffffff;fill-opacity:1;"><g transform="translate(166.01876, 272.624982)"><path style="stroke:none" d="M 84.828125 -90.96875 C 85.640625 -91.789062 86.390625 -91.992188 87.078125 -91.578125 C 87.765625 -91.171875 87.765625 -90.488281 87.078125 -89.53125 C 82.023438 -83.25 76.253906 -76.757812 69.765625 -70.0625 C 63.273438 -63.375 56.613281 -57.84375 49.78125 -53.46875 C 43.226562 -49.101562 37.117188 -46.472656 31.453125 -45.578125 C 25.785156 -44.691406 21.550781 -45.71875 18.75 -48.65625 C 15.945312 -51.59375 15.503906 -56.613281 17.421875 -63.71875 C 18.503906 -67.675781 19.898438 -71.601562 21.609375 -75.5 C 23.316406 -79.394531 24.648438 -82.640625 25.609375 -85.234375 C 26.296875 -87.148438 26.398438 -88.378906 25.921875 -88.921875 C 25.441406 -89.460938 24.3125 -88.367188 22.53125 -85.640625 C 21.164062 -83.453125 19.359375 -80.378906 17.109375 -76.421875 C 14.859375 -72.460938 12.773438 -68.84375 10.859375 -65.5625 C 5.671875 -56.957031 0.789062 -51.148438 -3.78125 -48.140625 C -8.363281 -45.140625 -11.953125 -44.425781 -14.546875 -46 C -17.140625 -47.570312 -18.164062 -50.816406 -17.625 -55.734375 C -17.070312 -59.140625 -15.941406 -63.03125 -14.234375 -67.40625 C -12.523438 -71.78125 -10.40625 -76.117188 -7.875 -80.421875 C -5.351562 -84.722656 -2.625 -88.34375 0.3125 -91.28125 C 3.25 -94.21875 6.148438 -95.921875 9.015625 -96.390625 C 11.878906 -96.867188 14.472656 -95.539062 16.796875 -92.40625 C 17.484375 -91.582031 17.453125 -90.625 16.703125 -89.53125 C 15.953125 -88.4375 14.960938 -87.648438 13.734375 -87.171875 C 12.503906 -86.703125 11.546875 -86.875 10.859375 -87.6875 C 9.359375 -89.601562 7.6875 -90.21875 5.84375 -89.53125 C 4 -88.851562 2.117188 -87.285156 0.203125 -84.828125 C -1.703125 -82.367188 -3.472656 -79.460938 -5.109375 -76.109375 C -6.753906 -72.765625 -8.085938 -69.382812 -9.109375 -65.96875 C -10.140625 -62.550781 -10.789062 -59.613281 -11.0625 -57.15625 C -11.332031 -53.0625 -10.613281 -51.113281 -8.90625 -51.3125 C -7.195312 -51.519531 -4.941406 -53.09375 -2.140625 -56.03125 C 0.648438 -58.96875 3.476562 -62.554688 6.34375 -66.796875 C 8.8125 -70.617188 11.035156 -74.164062 13.015625 -77.4375 C 14.992188 -80.71875 17.078125 -83.863281 19.265625 -86.875 C 22.816406 -91.238281 25.679688 -93.25 27.859375 -92.90625 C 30.046875 -92.570312 30.59375 -90.148438 29.5 -85.640625 C 28.6875 -82.359375 27.59375 -78.941406 26.21875 -75.390625 C 24.851562 -71.847656 23.765625 -68.234375 22.953125 -64.546875 C 21.859375 -59.078125 22.398438 -55.351562 24.578125 -53.375 C 26.765625 -51.394531 29.972656 -50.878906 34.203125 -51.828125 C 38.441406 -52.785156 42.953125 -54.769531 47.734375 -57.78125 C 55.390625 -62.5625 62.390625 -68.125 68.734375 -74.46875 C 75.085938 -80.820312 80.453125 -86.320312 84.828125 -90.96875 Z M 84.828125 -90.96875 "/></g></g></g></svg>